<svg xmlns="http://www.w3.org/2000/svg" viewBox="0 0 66.39 66.39"><defs><style>.cls-1{isolation:isolate;}.cls-2{fill:#a4d7e3;}.cls-3{fill:#155263;}.cls-4{mix-blend-mode:hard-light;}.cls-5{fill:#fff;}</style></defs><g class="cls-1"><g id="Layer_2" data-name="Layer 2"><g id="Layer_1-2" data-name="Layer 1"><path class="cls-2" d="M29.93,43.28l-18,18a4.83,4.83,0,0,1-6.83-6.82L23.11,36.45Z"/><rect class="cls-2" x="28.37" y="28.37" width="9.65" height="9.65" transform="translate(-13.75 33.19) rotate(-45)"/><path class="cls-2" d="M62.75,8.47a4.78,4.78,0,0,1-1.42,3.41L50.11,23.11l-6.83,6.82-6.82-6.82,6.82-6.83L54.51,5.05a4.83,4.83,0,0,1,8.24,3.42Z"/><path class="cls-3" d="M33.19,46.54,40,53.37l-6.83,6.82L28.42,65a4.83,4.83,0,0,1-6.83-6.82l4.78-4.78Z"/><rect class="cls-3" x="38.46" y="38.46" width="9.65" height="9.65" transform="translate(-17.93 43.28) rotate(-45)"/><path class="cls-3" d="M66.39,25A4.85,4.85,0,0,1,65,28.42l-4.78,4.77L53.37,40l-6.83-6.83,6.83-6.82,4.78-4.78A4.83,4.83,0,0,1,66.39,25Z"/><path class="cls-3" d="M19.84,33.19,13,40,8.24,44.8A4.83,4.83,0,0,1,1.41,38l4.78-4.78L13,26.37Z"/><rect class="cls-3" x="18.28" y="18.28" width="9.65" height="9.65" transform="translate(-9.57 23.11) rotate(-45)"/><path class="cls-3" d="M46.21,4.83A4.82,4.82,0,0,1,44.8,8.24L40,13l-6.83,6.82L26.37,13l6.82-6.83L38,1.41a4.83,4.83,0,0,1,8.24,3.42Z"/><g class="cls-4"><path class="cls-2" d="M29.93,23.11l-6.82,6.82-18.06-18a4.83,4.83,0,0,1,6.83-6.83Z"/><rect class="cls-2" x="28.37" y="28.37" width="9.65" height="9.65" transform="translate(-13.75 33.19) rotate(-45)"/><path class="cls-2" d="M61.33,61.33a4.8,4.8,0,0,1-6.82,0l-18-18,6.82-6.82,18,18A4.81,4.81,0,0,1,61.33,61.33Z"/><path class="cls-3" d="M40,13l-6.83,6.82L26.37,13,21.59,8.24a4.83,4.83,0,0,1,6.83-6.83l4.77,4.78Z"/><rect class="cls-3" x="38.46" y="18.28" width="9.65" height="9.65" transform="translate(-3.66 37.37) rotate(-45)"/><path class="cls-3" d="M65,44.8a4.83,4.83,0,0,1-6.82,0L53.37,40l-6.83-6.83,6.83-6.82L65,38A4.82,4.82,0,0,1,65,44.8Z"/><path class="cls-3" d="M19.84,33.19,13,40,1.41,28.42a4.83,4.83,0,0,1,6.83-6.83L13,26.37Z"/><rect class="cls-3" x="18.28" y="38.45" width="9.65" height="9.65" transform="translate(-23.84 29.01) rotate(-45)"/><path class="cls-3" d="M44.8,65A4.82,4.82,0,0,1,38,65l-4.78-4.78-6.82-6.82,6.82-6.83L40,53.37l4.78,4.78A4.83,4.83,0,0,1,44.8,65Z"/></g><path class="cls-5" d="M49.38,18.93H37.82V53.47a4.61,4.61,0,0,1-4.61,4.61h0a4.6,4.6,0,0,1-4.61-4.61V18.93H17.86a4,4,0,0,1-4-4h0a4,4,0,0,1,4-4H49.38a4,4,0,0,1,4,4h0A4,4,0,0,1,49.38,18.93Z"/></g></g></g></svg>