<svg xmlns="http://www.w3.org/2000/svg" viewBox="0 0 32.34 21.38"><defs><style>.cls-1{fill:#8ecedb;}.cls-2{fill:#ff6d29;}</style></defs><g id="Layer_2" data-name="Layer 2"><g id="Layer_1-2" data-name="Layer 1"><path class="cls-1" d="M8.46,12.93A8.45,8.45,0,0,0,0,21.38H16.91A8.45,8.45,0,0,0,8.46,12.93Z"/><path class="cls-1" d="M12.22,8.35A3.76,3.76,0,1,1,8.46,4.59,3.76,3.76,0,0,1,12.22,8.35Z"/><path class="cls-2" d="M21.55,10.6A10.78,10.78,0,0,0,10.77,21.38H32.34A10.79,10.79,0,0,0,21.55,10.6Z"/><path class="cls-2" d="M26.34,4.79A4.79,4.79,0,1,1,21.55,0,4.79,4.79,0,0,1,26.34,4.79Z"/></g></g></svg>